#!OML:ASF H:\Terrain\Patient Classification 1\Walking\steve\steve.ASF
:FULLY-SPECIFIED
:DEGREES
1
root 7.67936 15.39 -38.1799 7.60556 -5.50641 -5.80512
lowerback 0.581436 3.60357 5.46324
upperback -3.22045 5.01835 2.30068
thorax -3.39529 2.38062 -0.836674
lowerneck -7.3691 -0.952988 -2.56145
upperneck 8.12201 -0.838337 -1.60989
head 3.978 -0.571315 -0.12997
rclavicle -3.80704e-014 -7.15625e-015
rhumerus -16.5584 2.51347 -86.5348
rradius 44.829
rwrist -17.7786
rhand -16.4097 -34.8528
rfingers 7.12502
rthumb 9.80491 -64.6045
lclavicle -3.80704e-014 -7.15625e-015
lhumerus -54.4637 17.5483 72.5128
lradius 10.6091
lwrist -11.096
lhand -18.1674 -4.63264
lfingers 7.12502
lthumb 8.10878 25.1918
rfemur -2.30027 -3.54265 27.9123
rtibia 22.9655
rfoot -15.514 23.4408
rtoes 5.89796
lfemur -38.572 4.10521 -12.0312
ltibia 28.0164
lfoot -15.2402 8.58499
ltoes -19.9342
2
root 7.70744 15.3924 -37.931 7.7105 -5.98798 -5.59109
lowerback 0.400977 3.70245 5.12438
upperback -3.23807 5.12771 2.23363
thorax -3.32738 2.44568 -0.7102
lowerneck -7.19121 -0.877264 -2.44262
upperneck 7.82694 -0.755407 -1.68592
head 3.83612 -0.525242 -0.168928
rclavicle -1.79155e-014 -1.27222e-014
rhumerus -15.5817 3.77421 -86.3654
rradius 45.7978
rwrist -18.4634
rhand -17.0678 -34.8296
rfingers 7.12502
rthumb 9.16995 -64.6102
lclavicle -1.79155e-014 -1.27222e-014
lhumerus -56.2722 18.462 70.4481
lradius 10.4196
lwrist -12.1068
lhand -19.548 -2.80761
lfingers 7.12502
lthumb 6.7762 27.064
rfemur -0.970827 -3.56796 27.2114
rtibia 22.037
rfoot -16.4157 24.034
rtoes 5.97296
lfemur -37.975 2.66361 -11.0646
ltibia 24.0824
lfoot -16.0521 9.60223
ltoes -17.5478
3
root 7.73681 15.3798 -37.6804 7.95688 -6.57649 -5.38552
lowerback 0.111634 3.85432 4.75145
upperback -3.36852 5.30727 2.1843
thorax -3.3185 2.54444 -0.544364
lowerneck -8.67506 -0.564108 -4.02985
upperneck 10.089 -0.257636 0.319714
head 4.45163 -0.260868 0.737252
rclavicle 8.34896e-015 9.93923e-015
rhumerus -14.7135 4.86569 -86.1366
rradius 46.5818
rwrist -18.7831
rhand -15.5048 -34.1618
rfingers 7.12502
rthumb 10.6778 -63.8705
lclavicle 8.34896e-015 9.93923e-015
lhumerus -57.7353 17.121 71.4319
lradius 11.4737
lwrist -9.35311
lhand -23.0211 1.46326
lfingers 7.12502
lthumb 3.42269 31.4155
rfemur -0.105531 -3.68448 26.4835
rtibia 21.6086
rfoot -15.6744 24.7802
rtoes 1.64376
lfemur -37.6479 1.58583 -10.2231
ltibia 20.6122
lfoot -17.192 10.4893
ltoes -14.8609
4
root 7.76675 15.3692 -37.4495 8.33365 -6.97308 -5.31642
lowerback -0.143204 4.04252 4.63029
upperback -3.53198 5.5421 2.02193
thorax -3.32991 2.66093 -0.6356
lowerneck -10.2821 -0.416048 -5.19705
upperneck 12.0893 -0.0144822 2.04377
head 5.33285 -0.100896 1.48666
rclavicle -3.18071e-014 -2.38542e-015
rhumerus -13.5889 5.36867 -85.9302
rradius 47.0933
rwrist -19.0789
rhand -13.0752 -33.7875
rfingers 7.12502
rthumb 13.0207 -63.3611
lclavicle -3.18071e-014 -2.38542e-015
lhumerus -58.8715 11.7319 77.6008
lradius 15.1823
lwrist -0.327141
lhand -18.6903 -0.0222117
lfingers 7.12502
lthumb 7.60406 29.8211
rfemur 0.455799 -3.94117 25.947
rtibia 21.239
rfoot -12.0371 25.7295
rtoes 8.78717
lfemur -37.2423 0.839833 -9.44881
ltibia 16.5981
lfoot -17.2044 11.7569
ltoes -14.4637
5
root 7.79391 15.3705 -37.2187 8.65419 -7.31324 -5.16908
lowerback -0.554769 4.13891 4.34816
upperback -3.51537 5.63475 1.88308
thorax -3.08837 2.71922 -0.591166
lowerneck -10.1324 -0.486898 -4.81364
upperneck 11.5486 -0.109082 1.52577
head 5.14306 -0.159812 1.25217
rclavicle 4.2776e-014 1.74931e-014
rhumerus -12.1898 5.86783 -85.7102
rradius 47.5113
rwrist -19.1955
rhand -9.28738 -32.9791
rfingers 7.12502
rthumb 16.6698 -62.2833
lclavicle 4.2776e-014 1.74931e-014
lhumerus -61.171 20.8982 63.8351
lradius 10.2639
lwrist -15.1071
lhand -15.3148 -5.04189
lfingers 7.12502
lthumb 10.8611 24.6572
rfemur 1.05193 -3.7899 25.3435
rtibia 21.0365
rfoot -10.6469 25.8098
rtoes 7.44265
lfemur -36.5968 0.0774647 -8.74558
ltibia 12.5552
lfoot -16.947 13.0063
ltoes -13.8745
6
root 7.82187 15.3516 -36.9794 8.87429 -7.73293 -5.21178
lowerback -1.13567 4.16589 4.121
upperback -3.31323 5.62461 1.95689
thorax -2.58076 2.73391 -0.336008
lowerneck -10.2347 -0.358859 -4.67908
upperneck 11.186 0.0752375 1.30982
head 5.04198 -0.0737356 1.17491
rclavicle 3.50855e-014 9.14409e-015
rhumerus -10.8744 6.48877 -85.4984
rradius 48.0301
rwrist -18.9148
rhand -10.3329 -35.768
rfingers 7.12502
rthumb 15.6631 -65.154
lclavicle 3.50855e-014 9.14409e-015
lhumerus -61.0762 16.1793 70.8873
lradius 13.4275
lwrist -5.68144
lhand -12.7554 -3.56039
lfingers 7.12502
lthumb 13.329 25.9933
rfemur 1.95961 -3.22576 24.973
rtibia 20.6214
rfoot -9.1379 25.9456
rtoes 7.48838
lfemur -35.7853 0.483869 -8.62644
ltibia 8.8552
lfoot -16.5857 12.4781
ltoes -10.9008
7
root 7.85064 15.3175 -36.7426 9.01063 -8.20423 -5.47796
lowerback -1.40016 4.27612 4.18639
upperback -3.17557 5.75067 2.05363
thorax -2.28976 2.80331 -0.24499
lowerneck -10.172 -0.316947 -4.85235
upperneck 10.7437 0.130429 1.49209
head 4.89224 -0.0365527 1.26185
rclavicle -8.98258e-014 -5.56597e-015
rhumerus -9.84046 7.04355 -85.2157
rradius 48.5563
rwrist -18.8474
rhand -14.2525 -37.9943
rfingers 7.12502
rthumb 11.8856 -67.637
lclavicle -8.98258e-014 -5.56597e-015
lhumerus -62.5006 16.6953 69.7787
lradius 14.187
lwrist -5.70006
lhand -14.7943 -3.08976
lfingers 7.12502
lthumb 11.3632 26.5824
rfemur 3.06832 -2.76251 24.8621
rtibia 19.9387
rfoot -10.8424 26.241
rtoes 6.39365
lfemur -35.011 0.967079 -8.27652
ltibia 5.62929
lfoot -15.099 12.6762
ltoes -13.1137
8
root 7.87982 15.3152 -36.506 9.03424 -8.68862 -5.79535
lowerback -1.35457 4.45281 4.44142
upperback -3.11692 5.98606 2.04703
thorax -2.22157 2.91648 -0.390366
lowerneck -10.151 -0.256592 -4.81178
upperneck 10.5359 0.179303 1.69069
head 4.82206 0.00437053 1.31952
rclavicle -1.3946e-014 -1.86858e-014
rhumerus -9.0307 7.44561 -84.9193
rradius 49.0908
rwrist -19.0352
rhand -16.8727 -36.9584
rfingers 7.12502
rthumb 9.35813 -66.7306
lclavicle -1.3946e-014 -1.86858e-014
lhumerus -63.8727 17.6697 67.4886
lradius 14.0044
lwrist -6.83923
lhand -18.6084 -2.63199
lfingers 7.12502
lthumb 7.68316 27.2084
rfemur 4.32998 -2.19891 24.7763
rtibia 19.1763
rfoot -7.78315 26.2333
rtoes 8.13061
lfemur -33.8058 1.45214 -7.85413
ltibia 2.48741
lfoot -12.1823 13.6356
ltoes -21.159
9
root 7.91288 15.3138 -36.265 8.95555 -9.02805 -6.13159
lowerback -1.14554 4.63416 4.78172
upperback -3.08567 6.23943 1.98234
thorax -2.25535 3.03363 -0.656275
lowerneck -10.2672 -0.0985357 -4.03904
upperneck 10.5986 0.315946 1.39759
head 4.85745 0.083141 1.11308
rclavicle -4.60683e-014 2.38542e-015
rhumerus -8.51146 7.64131 -84.6636
rradius 49.7835
rwrist -19.2464
rhand -18.004 -35.622
rfingers 7.12502
rthumb 8.2665 -65.4403
lclavicle -4.60683e-014 2.38542e-015
lhumerus -64.7283 17.5513 66.5787
lradius 13.9799
lwrist -6.41938
lhand -21.9599 1.10065
lfingers 7.12502
lthumb 4.44747 31.034
rfemur 5.76139 -1.47173 24.7942
rtibia 18.3093
rfoot -5.82649 25.7273
rtoes 8.23766
lfemur -33.3408 1.77583 -7.39379
ltibia 1.54449
lfoot -11.71 12.9784
ltoes -20.9487
10
root 7.94694 15.2887 -36.0219 8.96305 -9.25129 -6.39393
lowerback -0.944261 4.7645 5.02896
upperback -3.12983 6.42909 1.9147
thorax -2.37218 3.11825 -0.878706
lowerneck -10.4449 -0.224596 -4.44816
upperneck 10.467 0.165621 1.8147
head 4.84961 0.0219112 1.29834
rclavicle -3.45388e-014 -5.76476e-015
rhumerus -8.23156 7.77195 -84.4608
rradius 50.512
rwrist -19.348
rhand -18.8386 -35.5997
rfingers 7.12502
rthumb 7.46095 -65.4481
lclavicle -3.45388e-014 -5.76476e-015
lhumerus -65.4757 17.4494 65.6985
lradius 13.9501
lwrist -6.09665
lhand -14.4518 -9.10967
lfingers 7.12502
lthumb 11.6935 20.544
rfemur 7.10265 -0.722103 24.8404
rtibia 17.4044
rfoot -5.28594 24.9533
rtoes 6.47816
lfemur -34.7978 1.87037 -7.18879
ltibia 4.20075
lfoot -13.3083 11.4498
ltoes -17.4344
11
root 7.97821 15.2642 -35.7766 9.03031 -9.45032 -6.55132
lowerback -0.92574 4.86173 5.13209
upperback -3.15149 6.5601 1.84321
thorax -2.37929 3.17983 -1.00944
lowerneck -10.448 -0.290794 -4.67689
upperneck 10.1681 0.0706856 2.15817
head 4.76014 -0.00862977 1.43414
rclavicle -3.95581e-014 1.76918e-014
rhumerus -8.01959 7.76995 -84.3182
rradius 51.2265
rwrist -19.239
rhand -19.0201 -35.8816
rfingers 7.12502
rthumb 7.28579 -65.7362
lclavicle -3.95581e-014 1.76918e-014
lhumerus -66.3766 18.0001 63.7728
lradius 13.5322
lwrist -7.07117
lhand -11.5145 -11.9675
lfingers 7.12502
lthumb 14.5248 17.504
rfemur 8.07099 -0.0509934 24.8057
rtibia 16.8762
rfoot -4.048 24.2462
rtoes 2.55209
lfemur -35.8048 1.94278 -7.06405
ltibia 6.14201
lfoot -13.7752 10.7807
ltoes -17.4683
12
root 8.00712 15.2378 -35.5245 8.86952 -9.63207 -6.51871
lowerback -0.747033 4.96746 5.01502
upperback -3.14832 6.71026 1.70152
thorax -2.46391 3.25389 -1.10647
lowerneck -10.506 -0.445308 -4.72864
upperneck 10.0407 -0.153862 2.38906
head 4.73819 -0.104681 1.49796
rclavicle 5.22679e-014 2.39536e-014
rhumerus -7.95878 7.52678 -84.1861
rradius 51.8972
rwrist -18.9822
rhand -19.3481 -36.534
rfingers 7.12502
rthumb 6.96914 -66.3992
lclavicle 5.22679e-014 2.39536e-014
lhumerus -67.5353 19.0175 60.4219
lradius 12.7287
lwrist -9.61227
lhand -10.9909 -10.5111
lfingers 7.12502
lthumb 15.0293 18.9234
rfemur 8.95203 0.396267 24.5489
rtibia 16.8573
rfoot -2.028 23.719
rtoes 0.525463
lfemur -36.1383 1.90648 -7.14276
ltibia 7.77696
lfoot -14.0941 10.7165
ltoes -19.4632
13
root 8.03339 15.2079 -35.2671 8.53014 -9.83257 -6.24078
lowerback -0.49072 5.02328 4.54098
upperback -3.06237 6.79177 1.57488
thorax -2.55081 3.3037 -0.999148
lowerneck -10.6221 -0.576738 -4.76734
upperneck 9.90763 -0.345904 2.61932
head 4.72358 -0.18407 1.56175
rclavicle -9.93923e-017 1.98785e-015
rhumerus -7.91258 7.36975 -84.0166
rradius 52.4372
rwrist -18.8863
rhand -19.7302 -36.4455
rfingers 7.12502
rthumb 6.60029 -66.3226
lclavicle -9.93923e-017 1.98785e-015
lhumerus -68.4189 19.7992 57.7945
lradius 11.987
lwrist -11.5541
lhand -11.106 -9.98129
lfingers 7.12502
lthumb 14.9184 19.4615
rfemur 9.87249 0.785038 23.9868
rtibia 17.2327
rfoot -0.210513 23.2848
rtoes 4.68906
lfemur -36.1685 1.77167 -7.53136
ltibia 9.70922
lfoot -14.6525 10.4367
ltoes -18.7347
14
root 8.05928 15.1815 -35.0075 8.28757 -9.79097 -5.9828
lowerback -0.381393 5.00875 4.0558
upperback -2.98394 6.76984 1.51179
thorax -2.5777 3.30427 -0.807257
lowerneck -10.8956 -0.665092 -4.75241
upperneck 9.88859 -0.466993 2.72839
head 4.76783 -0.234196 1.58466
rclavicle 6.04694e-014 3.97569e-016
rhumerus -8.01887 7.37943 -83.7417
rradius 53.0129
rwrist -19.2767
rhand -19.7503 -34.7757
rfingers 7.12502
rthumb 6.5809 -64.6535
lclavicle 6.04694e-014 3.97569e-016
lhumerus -68.9798 20.1621 56.2363
lradius 11.3961
lwrist -12.7512
lhand -11.5827 -9.98053
lfingers 7.12502
lthumb 14.4591 19.4957
rfemur 10.5538 1.31255 23.5854
rtibia 17.9181
rfoot 1.34918 22.5182
rtoes 6.70793
lfemur -36.4036 1.43618 -7.86139
ltibia 11.8858
lfoot -14.7921 10.0082
ltoes -16.6376
15
root 8.08772 15.1533 -34.7433 8.28538 -9.43192 -5.94109
lowerback -0.425984 4.97281 3.82601
upperback -3.10271 6.7215 1.48444
thorax -2.69971 3.28224 -0.71294
lowerneck -10.9291 -0.739948 -4.54848
upperneck 9.85917 -0.579039 2.56726
head 4.76762 -0.291355 1.49312
rclavicle -6.67668e-014 1.09332e-015
rhumerus -8.55015 7.43521 -83.435
rradius 53.6852
rwrist -19.5928
rhand -22.1432 -37.0785
rfingers 7.12502
rthumb 4.27051 -67.0155
lclavicle -6.67668e-014 1.09332e-015
lhumerus -70.552 21.51 51.8051
lradius 10.8823
lwrist -17.1384
lhand -11.6513 -11.1971
lfingers 7.12502
lthumb 14.3931 18.2839
rfemur 11.1939 2.25643 23.6763
rtibia 18.4795
rfoot 2.01904 21.0634
rtoes 7.40361
lfemur -37.2467 2.43253 -9.08841
ltibia 14.449
lfoot -12.9671 8.58775
ltoes -15.8875
